<?xml version="1.0" standalone="no"?>
<!DOCTYPE svg PUBLIC "-//W3C//DTD SVG 20010904//EN"
 "http://www.w3.org/TR/2001/REC-SVG-20010904/DTD/svg10.dtd">
<svg version="1.0" xmlns="http://www.w3.org/2000/svg"
 width="560.000000pt" height="560.000000pt" viewBox="0 0 560.000000 560.000000"
 preserveAspectRatio="xMidYMid meet">
<metadata>
Created by potrace 1.14, written by Peter Selinger 2001-2017
</metadata>
<g transform="translate(0.000000,560.000000) scale(0.100000,-0.100000)"
fill="#000000" stroke="none">
<path d="M2709 4586 c-2 -3 -49 -7 -104 -11 -55 -3 -111 -8 -125 -10 -80 -10
-128 -18 -252 -39 -248 -42 -552 -164 -677 -271 -194 -167 -155 -354 107 -508
l82 -49 0 -826 c0 -455 0 -884 0 -954 0 -93 4 -130 13 -140 12 -11 210 -13
1157 -12 1066 1 1144 3 1156 18 10 14 12 217 10 944 -1 510 0 934 2 943 2 8
29 28 60 43 429 211 376 506 -128 704 -175 69 -442 129 -655 148 -33 3 -73 8
-90 10 -37 6 -551 15 -556 10z"/>
<path d="M1733 1672 c-14 -2 -25 -12 -28 -25 -5 -28 -23 -148 -29 -207 -3 -25
-8 -67 -11 -95 -3 -27 -8 -61 -10 -75 -2 -14 -7 -46 -10 -71 l-6 -45 50 -3
c51 -2 60 4 66 42 8 46 12 58 23 69 16 16 22 8 42 -54 l17 -53 62 -1 c42 -1
61 2 61 11 0 7 -16 52 -35 99 -19 48 -35 93 -35 99 0 7 25 37 55 67 30 30 55
57 55 60 0 3 -27 5 -61 5 -57 0 -62 -2 -100 -43 -43 -44 -64 -54 -55 -24 2 9
10 58 16 107 6 50 13 100 15 111 4 18 0 22 -28 25 -17 2 -42 3 -54 1z"/>
<path d="M916 1638 c-5 -26 -24 -162 -31 -223 -2 -22 -9 -76 -15 -120 -7 -44
-12 -93 -13 -110 l-2 -30 97 -1 c117 -2 171 7 207 33 33 24 62 83 63 125 1 41
-11 88 -23 88 -5 0 -9 7 -9 15 0 8 4 15 9 15 10 0 29 42 36 79 2 13 6 26 9 28
2 3 -2 24 -11 48 -20 61 -59 75 -203 75 -106 0 -110 -1 -114 -22z m185 -88
c23 -13 25 -53 3 -71 -8 -7 -33 -14 -55 -15 -38 -2 -39 -1 -35 30 2 17 4 39 5
49 1 20 49 24 82 7z m-9 -201 c16 -9 19 -17 14 -42 -8 -40 -20 -47 -80 -47
l-48 0 6 31 c3 17 6 40 6 50 0 16 8 19 41 19 22 0 49 -5 61 -11z"/>
<path d="M3233 1652 c-5 -4 -11 -14 -11 -22 -1 -8 -3 -26 -6 -40 -5 -27 -13
-90 -22 -160 -3 -25 -7 -56 -9 -70 -2 -14 -7 -50 -11 -80 -15 -127 -16 -124
53 -125 48 0 45 -6 63 124 6 41 12 77 15 79 2 2 26 5 52 6 49 2 87 -9 79 -22
-3 -5 -7 -32 -11 -62 -3 -30 -8 -67 -11 -82 -5 -33 16 -46 65 -41 48 4 44 -2
56 98 3 28 9 70 12 95 4 25 7 56 7 70 1 14 5 31 9 38 5 6 6 12 4 12 -2 0 2 35
8 79 6 43 9 85 6 92 -6 14 -93 21 -104 9 -3 -3 -8 -25 -11 -50 -9 -80 -16
-123 -21 -130 -2 -4 -30 -6 -62 -6 l-58 1 -1 38 c0 20 3 61 7 89 3 29 5 55 3
57 -6 7 -91 9 -101 3z"/>
<path d="M1371 1488 c-30 -13 -46 -27 -56 -52 -8 -20 -15 -38 -15 -41 0 -3 25
-5 55 -5 30 0 55 4 55 9 0 14 37 23 60 16 44 -14 17 -45 -39 -45 -53 0 -122
-31 -142 -64 -28 -45 -25 -107 6 -136 30 -28 101 -31 139 -6 28 17 51 21 41 7
-7 -12 21 -21 63 -19 36 1 37 4 46 98 3 30 8 79 12 108 10 78 -17 127 -76 139
-50 11 -112 7 -149 -9z m103 -186 c22 -36 -49 -86 -79 -56 -19 19 -19 29 1 48
16 17 69 22 78 8z"/>
<path d="M2155 1495 c-83 -22 -124 -87 -126 -202 -2 -89 39 -135 129 -146 84
-9 164 29 178 86 6 27 6 27 -44 27 -32 0 -54 -5 -62 -15 -7 -8 -27 -15 -45
-15 -24 0 -34 6 -43 24 -15 32 -3 36 114 36 91 0 94 1 95 23 1 12 2 36 3 54 4
67 -47 125 -119 136 -16 2 -52 -1 -80 -8z m83 -87 c26 -26 13 -38 -38 -38 -37
0 -50 4 -50 15 0 29 64 47 88 23z"/>
<path d="M2442 1491 c-5 -3 -13 -31 -16 -61 -4 -30 -9 -71 -11 -90 -2 -19 -7
-57 -10 -85 -4 -27 -8 -62 -11 -76 -3 -24 -1 -25 46 -26 59 -2 64 5 75 92 4
33 9 69 10 80 2 11 4 26 4 33 1 6 21 17 46 24 40 11 45 16 51 48 3 19 8 43 11
53 6 24 -31 22 -73 -4 -29 -17 -34 -18 -34 -5 0 9 -3 16 -7 17 -37 5 -73 5
-81 0z"/>
<path d="M2674 1488 c-3 -5 11 -78 32 -162 l37 -154 -37 -71 c-20 -39 -33 -72
-29 -72 27 -5 115 -4 121 0 4 4 21 38 37 76 16 39 61 135 101 215 40 80 74
151 76 159 3 12 -40 17 -101 12 -5 -1 -19 -27 -31 -58 -58 -150 -64 -155 -75
-73 -3 25 -9 64 -12 88 -4 29 -11 42 -22 43 -62 5 -93 4 -97 -3z"/>
<path d="M3695 1483 c-58 -31 -86 -89 -91 -186 -3 -67 -2 -69 35 -106 35 -35
42 -38 102 -40 53 -2 71 2 99 21 97 66 120 256 38 307 -34 21 -146 24 -183 4z
m113 -87 c15 -9 15 -59 2 -107 -11 -39 -50 -60 -74 -40 -7 6 -15 8 -19 5 -3
-3 -4 21 -3 55 2 41 8 67 20 80 17 18 51 22 74 7z"/>
<path d="M4006 1481 c-3 -9 -8 -36 -11 -61 -11 -93 -17 -136 -20 -157 -6 -38
14 -89 39 -103 31 -16 110 -8 135 14 22 20 41 21 41 1 0 -8 6 -16 13 -16 15
-2 81 1 83 4 1 1 4 38 7 82 4 44 9 91 12 105 3 14 7 52 9 85 l5 60 -49 0 c-57
0 -60 -2 -64 -46 -19 -174 -25 -194 -61 -203 -47 -12 -55 0 -51 72 3 37 5 67
6 67 2 0 4 9 5 20 1 11 5 35 8 53 3 20 1 32 -6 33 -69 8 -97 5 -101 -10z"/>
<path d="M4444 1486 c-43 -19 -64 -53 -64 -101 0 -58 18 -76 90 -89 74 -14 84
-20 70 -47 -12 -22 -58 -26 -66 -5 -8 20 -119 17 -120 -4 -1 -30 26 -68 57
-79 41 -14 125 -13 166 2 72 27 103 124 54 167 -13 11 -27 20 -30 21 -3 0 -13
2 -21 4 -8 2 -31 7 -50 11 -53 9 -62 37 -17 53 15 6 27 2 41 -11 15 -14 32
-18 66 -16 39 3 45 6 46 26 1 13 -9 36 -21 50 -20 24 -31 27 -96 29 -48 2 -85
-2 -105 -11z"/>
<path d="M4802 1484 c-52 -27 -83 -84 -89 -165 -7 -91 6 -122 65 -150 41 -20
84 -25 142 -16 30 5 81 42 95 69 12 24 11 28 -5 33 -29 9 -90 2 -102 -12 -6
-7 -25 -13 -43 -13 -24 0 -34 6 -43 25 -6 13 -8 26 -4 29 4 2 51 4 104 3 54 0
100 2 103 5 11 11 13 102 3 128 -5 14 -21 36 -35 49 -34 32 -141 40 -191 15z
m128 -95 c0 -20 0 -21 -45 -24 -58 -3 -69 11 -34 44 17 16 26 18 50 9 18 -6
29 -17 29 -29z"/>
</g>
</svg>
